<?xml version="1.0" encoding="utf-8"?>
<!-- Generator: Adobe Illustrator 24.2.3, SVG Export Plug-In . SVG Version: 6.00 Build 0)  -->
<svg version="1.1"
	 id="svg23" sodipodi:docname="logo.svg" xmlns:inkscape="http://www.inkscape.org/namespaces/inkscape" xmlns:sodipodi="http://sodipodi.sourceforge.net/DTD/sodipodi-0.dtd" xmlns:svg="http://www.w3.org/2000/svg"
	 xmlns="http://www.w3.org/2000/svg" xmlns:xlink="http://www.w3.org/1999/xlink" x="0px" y="0px" viewBox="0 0 308.8 304.9"
	 style="enable-background:new 0 0 308.8 304.9;" xml:space="preserve">
<style type="text/css">
	.st0{fill:#FF4A3F;}
	.st1{fill:#FFFFFF;}
</style>
<sodipodi:namedview  bordercolor="#000000" borderopacity="0.25" id="namedview25" inkscape:deskcolor="#d1d1d1" inkscape:pagecheckerboard="0" inkscape:pageopacity="0.0" inkscape:showpageshadow="2" pagecolor="#ffffff">
	</sodipodi:namedview>
<g id="SvgjsG2685" transform="matrix(0.9820592540669653,0,0,0.9820592540669653,-0.054560523427421584,0)">
	<g id="g17">
		<path id="path3" class="st0" d="M56.1,40.2h1.5l-1.2-0.6L56.1,40.2z M59.9,38.5c0,0.3,0,0.3,0.3,0.3l1.2-0.9
			C60.7,37.6,60.4,37.6,59.9,38.5z M48.5,46.4l0.9-0.6c0.3-0.3,0.3-0.6,0.3-0.6h-0.6L48.5,46.4C48.2,46.1,48.2,46.4,48.5,46.4z
			 M54.9,37.9h-0.3L54,38.5h0.9L54.9,37.9z M48.8,44.9l1.7-1.5c0.3-0.3,0.3-0.6,0.3-0.9H50l-3.5,3.2l-0.6,1.2l2-1.7L48.8,44.9z"/>
		<path id="path5" class="st0" d="M26.6,68.5v-0.6c0.2-1.3,1-2.4,2-3.2l2.6-1.7l1.5-1.7l2-2L36,58l1.2-0.9c1-0.6,1.9-1.5,2.3-2.6
			l1.2-1.5c1.1-1.1,2.1-2.4,2.9-3.8l0.6-0.9l0.9-0.6l-0.6-0.9l1.2-1.5c2.3-1.7,4.1-4.1,6.4-5.8l0.9-0.9c0.3-0.7,0.8-1.3,1.5-1.7
			l2.3-1.2h1.2c0.9-0.3,1.6-1,2-1.7v-0.6c0.9-1.7,2.2-3.1,3.8-4.1L66,28l0.6-0.6l1.2-1.2l2.9-1.5h0.6L68,26l-4.1,2.9
			c-1.7,1.5-4.1,1.7-5.2,4.1h0.9c-2,0.6-4.1,1.5-5,3.5c-0.9,2-2.3,1.7-3.5,2.6c-0.5,0.1-0.9,0.6-0.9,1.2c-2.3-0.3-3.2,1.5-4.4,2.6
			v2.3c-1.9,0.9-3.5,2.3-4.7,4.1c-4.7,0.3-4.7,6.1-8.7,7.3h-0.3c-0.1,0.2-0.1,0.4,0,0.6c-0.9,0-1.5,0.6-1.2,1.5L30.4,60
			c-2,1.2-1.7,3.2-2.9,5c-2.3,1.5-3.2,4.4-5,6.4l0.9,1.5l0.6-0.6C24.8,71,25.7,69.7,26.6,68.5z M155.4,5.3l1.7,0.6h0.6
			c1.3,0.6,2.7,0.8,4.1,0.6c1.8-0.3,3.7-0.2,5.5,0.3h3.5c1.2-0.3,2.5,0.1,3.5,0.9c0.1,0.1,0.1,0.2,0,0.3h-1.2
			c-0.1,0.1-0.1,0.2,0,0.3h2c1.2-0.5,2.6-0.5,3.8,0c0.6,0,0.3,0.3,0.6,0.6l1.5,0.6h-0.6c-0.6-1.2-1.5-1.2-2.3-1.2
			c-3.9-1.8-8.2-2.7-12.5-2.6h-2.3c-3.4-1-6.9-1.4-10.5-1.2h0.6L155.4,5.3z M176.6,14.3h0.6H176.6z M198.5,15.8
			c0.8,0.8,1.9,1,2.9,0.6h1.7c-1.5-1.2-3.3-1.9-5.2-2l-2-0.6l1.5,0.9L198.5,15.8z M188.6,12c0,0.3,0.3,0.6,0.6,0.9h0.6l1.5-0.9
			c-1.5-0.9-3.2-1.5-5-1.7l2,1.2L188.6,12z M210.1,19.8l2.3,1.5C211.9,20.4,211.3,19.8,210.1,19.8z"/>
		<path id="path7" class="st0" d="M286.7,217.3l1.7-4.7l1.7-4.4c0.6-1.5,1.7-5.2,2.3-7.6c0.1-0.7,0.4-1.4,0.9-2h0.3v-3.2
			c1.5-0.3,1.2-1.7,1.5-2.6l2.3-13.7c1.5-5.9,1.5-12.1,0-18.1c0.3-1.7-0.3-3.4-1.5-4.7v-12.5c-0.9-2.6,0.9-5.5-1.2-7.9l-2.3-9.3
			c0-0.2,0-0.4,0-0.6l-0.6-1.7c-0.2-0.4-0.2-0.8,0-1.2h0.3c0.9,0,0.9-1.5,0.9-2.6c-0.2-1.1-0.6-2.2-1.2-3.2l-0.9-1.2
			c-0.4-0.6-0.6-1.3-0.6-2c0.1-2-0.1-3.9-0.6-5.8v-1.7c-0.6-2-1.2-4.4-1.7-6.4l-0.6-1.5c-0.6-1-1-2.1-1.2-3.2
			c-0.2-0.8-0.5-1.6-0.9-2.3l-1.7-2.9c-0.5-0.4-1.1-0.6-1.7-0.6h-0.3v-0.9h-0.6v-2.3h-0.3V86c0-0.1,0-0.2,0-0.3v-0.6
			c0.3-0.6,0.3-0.9-0.3-1.5c-0.5-0.5-0.9-1.1-1.2-1.7l-0.6-1.7c-0.4-1.3-1.1-2.5-2-3.5c-0.6-0.6-1.1-1.3-1.5-2l-2-4.7
			c-0.4-1-1-2-1.7-2.9l-1.7-2.3c-0.5-0.7-0.9-1.5-1.2-2.3l-0.6-0.9c-0.3-0.4-0.4-1-0.3-1.5c0-0.5-0.2-0.9-0.6-1.2l-1.2-0.9v0.6
			c0.3,0.6,0,0.9-0.3,0.9h-0.6l0.9,2.9l0.9,1.5l2,2.6h-0.3l-0.6-0.6l-0.6-0.6c-0.3-1.8-1.7-3.1-3.5-3.2v-2c-0.9-3.5-4.7-3.8-6.4-6.1
			c-0.6-1.4-1.8-2.3-3.2-2.6l-2.3-2.6c-2.4-3.5-5.5-6.4-9-8.7l-2.3-1.7l-1.2-0.9c-2-2-2.9-5.2-6.4-5.2l-2.3-1.5l-2.6-2
			c-0.9-2.1-2.9-3.6-5.2-3.8c-1.9-1.7-4.2-2.9-6.7-3.5l0.6,0.6l1.5,1.2l3.8,2c2.3,1.2,4.3,2.8,6.1,4.7c1.3,1.3,2.8,2.3,4.4,3.2
			l1.7,1.5c0.3,0.3,0.6,0.6,0.3,0.9h-0.3l-2.6-0.9c-2.1-0.4-4.1-1.2-5.8-2.3l-3.5-1.7l-3.8-2H218c-0.9-0.3-1.2-1.2-2.3-1.5l-2.3-0.6
			l-7.3-1.5c-1-0.5-1.9-1.2-2.6-2c-0.9,0-1.8-0.3-2.6-0.9l-2.9-1.2c-2.8-0.6-5.5-1.3-8.2-2.3l-1.7-0.6l-2.9-0.9h-1.5l-0.6-0.9v-0.3
			h-4.7l-1.7-1.5l-1.2,0.6l-1.2,0.6h-0.6l-2.6-1.5c-1.7,1.7-3.2-0.6-4.7-0.3l-2.9-0.9c-1.1,0.6-2.4,0.6-3.5,0h-3.5
			c-0.9-0.1-1.5-0.9-1.5-1.7l0.9-0.6h1.7c0.2,0.3,0.3,0.6,0.3,0.9c0,0.6,0.6,0.6,1.5,0.6h0.6l-1.2-1.7c-0.8-0.7-1.9-0.9-2.9-0.6
			l-2.9,0.9h-0.3c0.9,0.6,0.6,0.9,0.6,1.5h-4.7l-1.2-0.6l-2.3-1.2h-0.3l-2-0.6h-6.7l1.2-0.6l2.3-0.6h0.9l5-0.9l3.2-0.6l1.7-0.6h-3.2
			c-3.3-0.7-6.6-0.7-9.9,0h-3.8l-9.9-0.3c-4.1,0.3-8.2,0-11.4,3.5c-7.3-1.2-13.7,2-20.1,5.2l-6.4,2.6c-4.1,0.6-7.8,2.4-10.8,5.2h0.9
			l1.5-0.9l2.3-1.5l3.8-1.7l2.9-0.6c1.8-1.2,3.7-2.1,5.8-2.6l2.6-0.9h0.6c0.3,0.6,1.5,0,2,0H98c0.3,0,0.3,0.3,0,0.3l-1.7,1.2
			l2.9-0.9l2.3-0.6l-3.8,2l-3.8,1.2c-0.8,0.2-1.4,0.8-1.7,1.5l-0.9,1.5h0.9l1.2-0.6c0.6-0.9,1.5-1.5,2.6-1.7l4.4-1.5h1.5
			c0.2-0.1,0.4,0,0.4,0.1c0.1,0.2,0,0.4-0.1,0.4l0,0c-0.6,0.6-1.7,0.9-2.3,1.5h0.6L91,21.6L80,26.3c-1.9,1.7-4.2,2.9-6.7,3.5
			c-1.5,1.3-3.1,2.4-5,3.2L66,33.5c-0.7,1.5-2.1,2.5-3.8,2.6l-0.9,1.5c-0.9,1.3-2.1,2.4-3.5,3.2h-0.3v-0.3l-0.6,0.6l-0.6,0.6
			l-2.9,0.6H52l-1.2,1.5c-0.3,0.3-0.3,0.6,0,0.6h0.3c-1.7,1.7-2.9,4.1-5.2,5l-3.8,4.4c-1.7,3.5-5.2,4.7-7.6,7.6
			c-2.3,2.9-4.1,11.4-11.4,12.5l-0.6-0.9L22,74.3c-0.3,0.8-0.6,1.6-1.2,2.3c-1.3,2-2.5,4-3.5,6.1c-0.3,0.4-0.4,1-0.3,1.5
			c0,0.8-0.2,1.6-0.6,2.3L15,89.7h0.6c0.9,0,0.9,0.9,1.2,1.7l2.3-3.2c0.4-0.8,1-1.5,1.7-2c1.1-0.6,2.1-1.5,2.6-2.6l0.9-0.9l1.2-1.2
			l1.7-3.2h0.6c0.3,0.3,0.3,0.3,0.6,0l0.6-1.2h1.5v2.3l1.5-1.5c0.3-0.5,0.3-1,0-1.5c0-0.3,0.1-0.6,0.3-0.9c0.4-0.4,0.7-0.9,0.9-1.5
			c0.3-1.2,1.2-2.2,2.3-2.6l0.9-0.6l0.9-0.9c1-0.7,1.8-1.7,2.3-2.9l-0.6-0.9c0-0.3,0.3-0.9,0.6-1.2h1.5l1.7-2.3l1.7-0.9H45
			c-6,6.5-11.3,13.5-16,21h-0.3H29c-6.5,10.2-11.7,21.1-15.4,32.6h-1.5l-1.5-1.2c-0.6-0.6-0.3-2-1.2-2.6h0.3c0.9-1.5-0.3-3.5,0.9-5
			s0.3-4.1-2.6-3.5s-4.4,1.5-3.8,4.4s-2.9,5.2-3.2,8.4s-1.5,1.5-0.9,2.6v11.4c0.3,2.3-1.5,5.2,2.3,6.1l3.8,2.6
			c0.3,1.5-1.5,4.7,2.6,3.8c-0.5,4.8-0.8,9.7-0.9,14.6c0,3.2,0.3,6.4,0.3,9.6v-1.2C8,164.6,8,163.4,7.7,162l-0.9,0.9v-0.6H5.4
			c0,1.5-0.3,2.3-1.2,2.6c-0.2,0.4-0.3,1-0.3,1.5c0,0.3,0.3,0.9,0.6,0.6c0.3-0.3,1.2,0.6,2,1.2c0.9,0.6-0.6,0.9-1.2,0.6
			s-0.6,0.3-0.6,0.9v0.9l1.5,4.4c0,0.9-0.3,1.7-0.3,2.6c0,0.8,0.2,1.6,0.6,2.3H5.7v-0.9l-2-0.6v-1.7c0.1-0.5,0.1-1,0-1.5
			c-0.4-1.7-0.7-3.5-0.9-5.2c-0.6-3.4-0.7-6.8-0.6-10.2c0-0.5,0.1-1,0.3-1.5v0.6c0.1,0.5,0.2,1,0.3,1.5c0,0.4,0.1,0.8,0.3,1.2
			c0.3,0.6,0.6,1.2,1.2,1.2s0.3-0.3,0.3-0.6c0-0.5-0.1-1-0.3-1.5c-0.5-1.2-0.8-2.5-0.9-3.8c-0.1-0.7-0.4-1.4-0.9-2
			c-0.4-0.8-0.6-1.7-0.6-2.6v-2.3c0-0.9,0.3-1.7,0.3-2.6c0.1-0.4,0-0.8-0.3-1.2H1.6c-2.3,1.2-2,0.6-2.9,4.7v5.2c0,2-0.3,4.1,0,6.1
			c0,2.2,0.1,4.5,0.6,6.7c0.1,0.5,0.1,1,0,1.5c0,0.9,0.1,1.8,0.3,2.6c0.2,1.2,0.3,2.5,0.3,3.8c-0.2,1.7,0,3.4,0.6,5
			c0.1,0.4,0.1,0.8,0,1.2c-0.1,0.8,0,1.6,0.3,2.3c0.3,0.9,0.5,1.7,0.6,2.6c0.3,2.2,0.8,4.3,1.5,6.4c0.3,0.9,0.5,1.9,0.6,2.9
			c0.1,0.7,0.4,1.4,0.9,2c0.7,1,1.2,2.2,1.5,3.5c0.2,1,0.5,2,0.9,2.9l1.2,4.1c0.4,1.5,0.9,3,1.7,4.4c1,1.9,1.8,4,2.3,6.1l0.6,1.5
			c0.7,0.8,1.2,1.8,1.5,2.9c0.2,0.9,0.6,1.6,1.2,2.3c0.3,0.4,0.5,0.9,0.6,1.5c0.3,0.9,0.6,1.2,1.2,0.9H17v2.6l1.5,2.9l1.5,2.9
			l3.2,3.5l1.2,1.2c0.9,0.9,2,1.5,2.6,2.9l1.2,0.9c0.5,0.3,0.8,0.9,0.9,1.5l0.6,2c0.4,1,1,1.8,1.7,2.6l1.2,0.6h0.9
			c0.3,0.1,0.5,0.4,0.4,0.7c0,0,0,0.1-0.1,0.1c0,0.5,0,1,0,1.5c0.2,0.6,0.6,1.1,1.2,1.5h0.6c1.2-0.3,2.3,0.6,3.5,2h0.3
			c0-0.3,0.3-0.3,0-0.6v-0.6c0-0.3,0.3-0.6,0.6-0.3c0.6,0.4,0.9,1.1,0.9,1.7v0.6c0.2,1.2,0.6,2.4,1.2,3.5c1.5,0.9,1.5,0.9,1.5,0.3
			c0-0.6,0-0.6,0.6-0.6H45l0.6,0.9l2.3,1.5c2,2.3,5.2,2,7.6,3.5l5,5H61c0.9,2.1,2.5,3.8,4.7,4.7c0.6,1,1.7,1.7,2.9,1.7
			c0,1.5,1.7,1.7,3.2,2c0.6,0.7,1.4,1.1,2.3,1.2h0.6c1.1,1.2,2.8,1.7,4.4,1.5l2.6,2.3l7,2.6v0.6c1.5,3.2,5,2,7.3,2.9l3.2,1.2h1.2
			c3.5,0.9,7,2.6,10.8,1.5c-0.1,0.4-0.1,0.8,0,1.2c3.2,2,7,0,10.5,1.2c1.6,0.6,3.3,0.7,5,0.3h0.3l2.3,0.6h0.9l2.6,0.6h0.9
			c0.5-0.3,1-0.3,1.5,0c1.4,0.5,2.9,0.9,4.4,1.2h1.7c0.6-0.4,1.4-0.4,2,0h11.4c1.6,0.2,3.1,0.1,4.7-0.3h2.9l1.5-0.6h9.6l1.7-0.6
			l1.5-0.9h6.4v1.7H179l-3.5,0.6c-1.2,0.3-2,0-2.9,0.3c-0.9,0.4-1.9,0.6-2.9,0.6l-3.8,0.9h-1.2c-1.5-0.3-3-0.2-4.4,0.3h-5.2
			c-0.8,0.4-1.8,0.4-2.6,0h-13.1c-1.1-0.2-2.3,0.1-3.2,0.9h-0.9l-0.9-0.6v-0.9h-3.5c-1.2-0.5-2.5-0.8-3.8-0.9h-7.3l-2-0.6l-1.5-0.6
			l-6.1-1.2h-1.5l-1.5-0.6l-6.1-2l-4.1-1.2h-6.4c-0.3,0-0.3,0.3-0.3,0.6H91c3.8,1.5,7.6,2.6,11.4,4.4h0.9l2.6,0.6l4.1,1.2h3.8
			l1.7,0.6l2,0.9l5,0.9l3.2,0.6l3.2,0.6h2.3l2.3,0.6h9l2.9,0.6h6.7l2.9-0.6h6.4c1.2,0,1.7-0.3,2-0.9h2.9c0.9,0.1,1.7-0.2,2.3-0.9
			c-0.3,0.3,0,0.3,0.3,0.6h1.2v-0.6c0-0.3,0-0.3,0.6-0.6c0.6-0.3,1.7-0.3,2,0.3h1.2l0.9-0.6c0.6,0,0.6,0,0.6,0.3h2l1.5-0.6l2.3-1.2
			c0.3,0.9,1.2,1.2,3.8,0.6l3.8-1.2h3.5c2.6-0.3,5.8,0,7.9-2h0.6l1.2-0.9l3.2-0.9c2.1-0.4,4-1.2,5.8-2.3l1.2-0.6h0.3l2.6-1.7
			l1.2-0.6l1.5-0.6h1.2c1.2-0.3,1.2-0.3,1.5-1.2c0.3-0.9,0-0.3-0.6-0.3h-0.3l1.2-1.5h0.6c0.9-0.3,1.5-0.6,2-0.3h0.6
			c1.3-0.4,2.3-1.4,2.6-2.6c0.9-1.2,3.2-0.6,3.8-2.3l12.5-9c3.2-0.3,4.1-3.2,6.4-5c2.3-1.7,6.7-3.2,8.7-6.4l2.6-1.2h0.3
			c1.5,0.4,3.1-0.5,3.5-2v1.2c2.3-1.2,5.2,0.9,7.6-1.5c2.3-2.3,0-7.9,2.9-11.1l2-1.5c2.2-3.8,3.7-7.9,4.4-12.2l0.6-0.6
			c0-0.9,0-2,1.2-2.6c1.1-0.8,1.3-2.4,0.6-3.5H283c0.2-0.3,0.2-0.6,0-0.9c2,0,2.3-2,3.5-2.9v-4.1c0-0.2,0-0.4,0-0.6
			C286.6,218.7,286.7,218,286.7,217.3L286.7,217.3z"/>
		<path id="path9" class="st0" d="M75.3,22.8l-0.9,0.6l-1.2,0.9l1.5-0.6L75.3,22.8z M93.1,16.9h0.3l0.9-0.6h-1.2L93.1,16.9z
			 M85.5,19.8l-0.3,0.3h0.3V19.8z M25.2,72L24,73.1h0.6C25,72.9,25.3,72.5,25.2,72z M33.9,61.8c0.4-0.5,0.7-1.1,0.9-1.7
			c-0.6,0.4-1.1,0.9-1.5,1.5c-0.3,0.3-0.3,0.6,0,0.6L33.9,61.8z M30.4,66.2v-0.6c-0.6,0-1.5,0.9-2.3,0.9V67
			C29,67.9,29.3,67.6,30.4,66.2z M213.6,22.5h0.3l-1.5-0.9L213.6,22.5z M206.4,18.4c1.5-0.3,2.3,1.2,3.5,1.5h0.3l-0.9-0.6l-2.9-1.5
			l-3.2-1.5l0.9,0.6L206.4,18.4z M186.3,10.5H186l-3.5-0.6h1.5L186.3,10.5z M192.1,12.6l3.8,1.2C194.7,13.1,193.4,12.7,192.1,12.6z
			 M165.9,12.6c0.3-0.4,0.5-0.9,0.6-1.5H165l-0.9,0.9l1.2,0.9L165.9,12.6z M179.9,13.4c0,0.1,0,0.2,0,0.3V13.4z M310.3,165.8h-0.9
			v-1.2h0.9c0.3,0,0.6-0.9,0.3-1.2c-0.3-0.3-0.3-2-0.9-2.3c-0.4-0.1-0.6-0.5-0.6-0.9l0.6-1.2c0-0.2,0-0.4,0-0.6h-0.6l-0.6-0.9
			c-0.3,0.9-0.6,1.7-1.2,2c0,0.2,0,0.4,0,0.6c0,0.3,0,0.6-0.3,0.6h-0.3c-0.1,0.3-0.2,0.6-0.3,0.9c-0.6,0.8-1,1.7-1.2,2.6
			c-0.1,0.4,0,0.9,0.3,1.2h0.3c-0.3,0.7-0.4,1.5-0.3,2.3v1.2c0,0.5-0.1,1-0.3,1.5h-0.3l-1.2,2v1.7c0.1,1.1-0.2,2.3-0.9,3.2h-0.6
			l-0.6-0.6c-0.5-0.7-0.6-1.6-0.3-2.3c0.3-1.6,0.4-3.3,0.3-5c0-0.3-0.3-0.6-0.3-0.6c-0.2,0.3-0.3,0.6-0.3,0.9v1.7
			c0,0.6-0.3,1.7-0.9,2c-0.6,0.3-0.3,0.6-0.3,0.9l-0.6,1.7l0.9,1.5c-0.6,0.6-1.2,0.3-1.5-0.3v2.9h0.9v1.2c-0.5,1.3-0.8,2.7-0.9,4.1
			c0,0.4,0,0.8,0,1.2c0,1.3-0.2,2.6-0.6,3.8c-0.1,0.6-0.1,1.2,0,1.7l-0.9,2c-0.2,0.7-0.5,1.4-0.9,2l-0.9,1.7l-2.6,7.9
			c0.9,2.6-1.2,4.4-2.3,6.1c0.3,2.5-0.5,5-2.3,6.7v1.2c0,0.3,0.3,0.6,0.9,0.3l1.2-0.9l0.6-1.2h0.6c0.3,0.3,0.6,0.3,1.2-0.3h0.6
			c0.5,0.4,0.6,1.2,0.3,1.7c-0.2,0.8-0.3,1.5-0.3,2.3c0,0.3,0,0.6,0.3,0.6h0.6c0.3,0.3,0.6,0,0.9-0.9l0.6-1.5h0.9
			c1.2-0.3,1.2-0.3,1.7-1.7l1.5-2.6l0.9-1.7l1.2-2.9c0-1,0.3-2.1,0.9-2.9c0.4-0.5,0.5-1.2,0.3-1.7c0-0.6,0-0.9,0.6-1.7l0.9-1.2
			l1.5-2.9c0.1-0.9,0.3-1.8,0.6-2.6c0.6-1.2,0.9-2.5,0.9-3.8c0.2-0.9,0.5-1.8,0.9-2.6v-1.5c-0.3-0.6-0.3-0.6,0-1.7s0.3-0.6,0.6-0.6
			c0.2,0.2,0.3,0.6,0.3,0.9l0.6-1.5c0.4-0.8,0.6-1.7,0.6-2.6v-0.9c0-0.3,0-0.9-0.3-0.9v1.2c-0.6,0-0.9,0.6-1.5,0.9
			c0.1-0.8,0.2-1.5,0.3-2.3l1.2-0.6c0.5-0.5,0.7-1.1,0.6-1.7c0-0.3,0-0.6,0-0.9c0.4-1.3,0.6-2.7,0.6-4.1v-0.6l0.9-2.9h0.3
			c0.3-0.2,0.4-0.6,0.3-0.9h-0.3c-0.2-0.8,0-1.7,0.6-2.3C312.6,167.4,311.6,166.3,310.3,165.8L310.3,165.8z M24.9,85.4
			c0.1-0.2,0.1-0.4,0-0.6l-0.6-0.6l-0.6,0.6l-0.9,1.7c0,0.9-0.9,1.7-0.9,2.6v0.6h0.3L24.9,85.4z M305.4,157.6h0.3
			c0.6-1.1,0.8-2.3,0.6-3.5c-0.1-0.6,0.1-1.1,0.6-1.5h0.3v-0.6l-0.6-0.6h-0.3c-0.3,0.3-0.6,0.9-0.9,0.9s-0.3,0.3-0.3,0.9v0.9
			C304.9,155.3,305,156.5,305.4,157.6L305.4,157.6z M36.8,258.1c-0.3,0,0,0.6,0,0.9l2.3,2.3h0.3c-0.6-0.9-0.9-1.7-0.6-2
			c-0.5,0-1-0.2-1.5-0.6L36.8,258.1z M308,155h0.3c0.1-0.6,0.1-1.2,0-1.7c-0.9,0.3-0.9,0.3-0.9,1.7S307.7,155.3,308,155L308,155z"/>
		<path id="path11" class="st0" d="M309.2,176.3c0.3-0.4,0.4-1,0.3-1.5c0-0.3-0.3-0.6-0.3-0.3h-0.6v0.6
			C308.6,176.3,308.9,176.5,309.2,176.3L309.2,176.3z M309.5,152.4h-0.3v1.7C309.5,153.6,309.6,153,309.5,152.4z M48.2,265.4h-0.6
			v0.6l0.6,0.6h0.6V266L48.2,265.4z M300.4,168.4c0-0.3,0-0.3-0.3-0.3L300.4,168.4z M27.2,247.6l1.5,1.5l-1.2-1.7L27.2,247.6z"/>
		<rect id="circle13" x="28.9" y="249.3" class="st0" width="0" height="0"/>
		<path id="path15" class="st0" d="M26.6,83.3h-0.3v0.6v-0.6H26.6z M269,64.1l-0.6-0.9h-0.3L269,64.1z M15.3,90
			c0.2-0.1,0.3-0.4,0.3-0.6V90H15.3z M302.2,172.2v0.3V172.2z M46.2,265.1h-0.3c0.3,0.3,0.6,0,0.3-0.3V265.1z M46.7,267.1H47
			l-0.3-0.3V267.1z"/>
	</g>
</g>
<path class="st1" d="M250.2,182.1c0,12.2,0,24.5,0,36.7c0,5.2-1.5,6.7-6.6,6.7c-14.2,0-28.5,0-42.7,0c-18.9-0.1-33.8-14.8-34-33.7
	c-0.1-8.7,0-17.5,0-26.2c0-5.5-2-8.7-6.2-10.2c-4.2-1.5-7.7-0.3-11.2,4.1c-16.6,20.8-33.2,41.5-49.7,62.4c-2.1,2.6-4.3,3.8-7.7,3.7
	c-14.6-0.2-29.2-0.1-43.8-0.1c-5.2,0-6.6-1.5-6.6-6.7c0-14.1-0.1-28.2,0.1-42.3c0-2.2,1-4.8,2.4-6.6c28.5-35.9,57.1-71.7,85.7-107.6
	c2-2.5,4.3-3.5,7.5-3.5c14.2,0.1,28.5,0.1,42.7,0.1c6.3,0,7.7,1.3,7.7,7.5c0,18.8,0,37.6,0,56.3c0,10.7,5.4,16.1,16.1,16.1
	c13.1,0,26.1,0,39.2,0c5.8,0,7.3,1.5,7.3,7.2C250.2,158.1,250.2,170.1,250.2,182.1z"/>
</svg>
